<mxfile host="65bd71144e">
    <diagram id="U6ML3f8_gh33GayiqLVN" name="Page-1">
        <mxGraphModel dx="904" dy="493" grid="1" gridSize="10" guides="1" tooltips="1" connect="1" arrows="1" fold="1" page="1" pageScale="1" pageWidth="850" pageHeight="1100" math="0" shadow="0">
            <root>
                <mxCell id="0"/>
                <mxCell id="1" parent="0"/>
                <mxCell id="3" value="User" style="swimlane;whiteSpace=wrap;html=1;" parent="1" vertex="1">
                    <mxGeometry x="120" y="40" width="200" height="1120" as="geometry"/>
                </mxCell>
                <mxCell id="4" value="" style="ellipse;html=1;shape=startState;fillColor=#000000;strokeColor=#ff0000;" parent="3" vertex="1">
                    <mxGeometry x="85" y="40" width="30" height="30" as="geometry"/>
                </mxCell>
                <mxCell id="5" value="" style="edgeStyle=orthogonalEdgeStyle;html=1;verticalAlign=bottom;endArrow=open;endSize=8;strokeColor=#ff0000;" parent="3" source="4" edge="1">
                    <mxGeometry relative="1" as="geometry">
                        <mxPoint x="100" y="110" as="targetPoint"/>
                    </mxGeometry>
                </mxCell>
                <mxCell id="6" value="Membuka halaman PLO" style="rounded=1;whiteSpace=wrap;html=1;" parent="3" vertex="1">
                    <mxGeometry x="50" y="110" width="100" height="50" as="geometry"/>
                </mxCell>
                <mxCell id="8" value="Pilih tombol &quot;Tambah&quot;" style="rounded=1;whiteSpace=wrap;html=1;" parent="3" vertex="1">
                    <mxGeometry x="50" y="200" width="100" height="50" as="geometry"/>
                </mxCell>
                <mxCell id="9" value="Pilih unit" style="rounded=1;whiteSpace=wrap;html=1;" parent="3" vertex="1">
                    <mxGeometry x="50" y="280" width="100" height="50" as="geometry"/>
                </mxCell>
                <mxCell id="39" value="" style="edgeStyle=none;html=1;entryX=0.5;entryY=0;entryDx=0;entryDy=0;" parent="3" source="10" target="11" edge="1">
                    <mxGeometry relative="1" as="geometry"/>
                </mxCell>
                <mxCell id="10" value="Masukkan no. certificate" style="rounded=1;whiteSpace=wrap;html=1;" parent="3" vertex="1">
                    <mxGeometry x="50" y="360" width="100" height="50" as="geometry"/>
                </mxCell>
                <mxCell id="11" value="Pilih tipe peralatan" style="rounded=1;whiteSpace=wrap;html=1;" parent="3" vertex="1">
                    <mxGeometry x="50" y="440" width="100" height="50" as="geometry"/>
                </mxCell>
                <mxCell id="41" value="" style="edgeStyle=none;html=1;" parent="3" source="12" target="40" edge="1">
                    <mxGeometry relative="1" as="geometry"/>
                </mxCell>
                <mxCell id="12" value="Masukkan issue date" style="rounded=1;whiteSpace=wrap;html=1;" parent="3" vertex="1">
                    <mxGeometry x="50" y="520" width="100" height="50" as="geometry"/>
                </mxCell>
                <mxCell id="43" value="" style="edgeStyle=none;html=1;" parent="3" source="40" target="42" edge="1">
                    <mxGeometry relative="1" as="geometry"/>
                </mxCell>
                <mxCell id="40" value="Masukkan inspection due date" style="rounded=1;whiteSpace=wrap;html=1;" parent="3" vertex="1">
                    <mxGeometry x="50" y="600" width="100" height="50" as="geometry"/>
                </mxCell>
                <mxCell id="89" value="" style="edgeStyle=none;html=1;" parent="3" source="42" target="88" edge="1">
                    <mxGeometry relative="1" as="geometry"/>
                </mxCell>
                <mxCell id="42" value="Masukkan PLO certificate" style="rounded=1;whiteSpace=wrap;html=1;" parent="3" vertex="1">
                    <mxGeometry x="50" y="680" width="100" height="50" as="geometry"/>
                </mxCell>
                <mxCell id="51" value="" style="edgeStyle=none;html=1;" parent="3" source="46" target="50" edge="1">
                    <mxGeometry relative="1" as="geometry"/>
                </mxCell>
                <mxCell id="46" value="Masukkan RLA Issue date" style="rounded=1;whiteSpace=wrap;html=1;" parent="3" vertex="1">
                    <mxGeometry x="50" y="850" width="100" height="50" as="geometry"/>
                </mxCell>
                <mxCell id="53" value="" style="edgeStyle=none;html=1;" parent="3" source="50" target="52" edge="1">
                    <mxGeometry relative="1" as="geometry"/>
                </mxCell>
                <mxCell id="50" value="Masukkan RLA due date" style="rounded=1;whiteSpace=wrap;html=1;" parent="3" vertex="1">
                    <mxGeometry x="50" y="930" width="100" height="50" as="geometry"/>
                </mxCell>
                <mxCell id="52" value="Masukkan RLA certificate" style="rounded=1;whiteSpace=wrap;html=1;" parent="3" vertex="1">
                    <mxGeometry x="50" y="1010" width="100" height="50" as="geometry"/>
                </mxCell>
                <mxCell id="88" value="Pilih RLA" style="rounded=1;whiteSpace=wrap;html=1;" parent="3" vertex="1">
                    <mxGeometry x="50" y="770" width="100" height="50" as="geometry"/>
                </mxCell>
                <mxCell id="13" value="Sistem" style="swimlane;whiteSpace=wrap;html=1;" parent="1" vertex="1">
                    <mxGeometry x="320" y="40" width="310" height="1120" as="geometry"/>
                </mxCell>
                <mxCell id="14" value="Menampilkan halaman PLO" style="rounded=1;whiteSpace=wrap;html=1;" parent="13" vertex="1">
                    <mxGeometry x="60" y="110" width="100" height="50" as="geometry"/>
                </mxCell>
                <mxCell id="15" value="Mengambil dari data unit" style="rounded=1;whiteSpace=wrap;html=1;" parent="13" vertex="1">
                    <mxGeometry x="60" y="280" width="100" height="50" as="geometry"/>
                </mxCell>
                <mxCell id="17" value="Mengambil dari data tipe peralatan" style="rounded=1;whiteSpace=wrap;html=1;" parent="13" vertex="1">
                    <mxGeometry x="60" y="440" width="100" height="50" as="geometry"/>
                </mxCell>
                <mxCell id="35" value="Menampilkan halaman tambah PLO" style="rounded=1;whiteSpace=wrap;html=1;" parent="13" vertex="1">
                    <mxGeometry x="60" y="200" width="100" height="50" as="geometry"/>
                </mxCell>
                <mxCell id="108" style="edgeStyle=none;html=1;exitX=1;exitY=0.5;exitDx=0;exitDy=0;entryX=0.5;entryY=0;entryDx=0;entryDy=0;" edge="1" parent="13" source="55" target="106">
                    <mxGeometry relative="1" as="geometry">
                        <Array as="points">
                            <mxPoint x="190" y="794"/>
                            <mxPoint x="190" y="850"/>
                            <mxPoint x="105" y="850"/>
                        </Array>
                    </mxGeometry>
                </mxCell>
                <mxCell id="55" value="Available" style="rhombus;whiteSpace=wrap;html=1;" parent="13" vertex="1">
                    <mxGeometry x="63.75" y="767" width="92.5" height="53" as="geometry"/>
                </mxCell>
                <mxCell id="86" value="" style="edgeStyle=none;html=1;entryX=0.5;entryY=0;entryDx=0;entryDy=0;" parent="13" source="58" target="85" edge="1">
                    <mxGeometry relative="1" as="geometry">
                        <mxPoint x="110" y="1052" as="targetPoint"/>
                    </mxGeometry>
                </mxCell>
                <mxCell id="58" value="Menyimpan data" style="rounded=1;whiteSpace=wrap;html=1;" parent="13" vertex="1">
                    <mxGeometry x="148.75" y="980" width="100" height="50" as="geometry"/>
                </mxCell>
                <mxCell id="85" value="" style="ellipse;html=1;shape=endState;fillColor=#000000;strokeColor=#ff0000;" parent="13" vertex="1">
                    <mxGeometry x="183.75" y="1070" width="30" height="30" as="geometry"/>
                </mxCell>
                <mxCell id="94" value="Ya" style="text;html=1;align=center;verticalAlign=middle;whiteSpace=wrap;rounded=0;" parent="13" vertex="1">
                    <mxGeometry x="-50" y="813" width="60" height="30" as="geometry"/>
                </mxCell>
                <mxCell id="109" style="edgeStyle=none;html=1;exitX=0.5;exitY=1;exitDx=0;exitDy=0;entryX=0;entryY=0.5;entryDx=0;entryDy=0;" edge="1" parent="13" source="106" target="58">
                    <mxGeometry relative="1" as="geometry">
                        <Array as="points">
                            <mxPoint x="105" y="1005"/>
                        </Array>
                    </mxGeometry>
                </mxCell>
                <mxCell id="110" style="edgeStyle=none;html=1;exitX=1;exitY=0.5;exitDx=0;exitDy=0;entryX=1;entryY=0.5;entryDx=0;entryDy=0;" edge="1" parent="13" source="106" target="35">
                    <mxGeometry relative="1" as="geometry">
                        <Array as="points">
                            <mxPoint x="230" y="917"/>
                            <mxPoint x="230" y="225"/>
                        </Array>
                    </mxGeometry>
                </mxCell>
                <mxCell id="106" value="Validasi Data" style="rhombus;whiteSpace=wrap;html=1;" vertex="1" parent="13">
                    <mxGeometry x="59" y="890" width="92.5" height="53" as="geometry"/>
                </mxCell>
                <mxCell id="111" value="Tidak" style="text;html=1;align=center;verticalAlign=middle;whiteSpace=wrap;rounded=0;" vertex="1" parent="13">
                    <mxGeometry x="110" y="846" width="60" height="30" as="geometry"/>
                </mxCell>
                <mxCell id="112" value="Ya" style="text;html=1;align=center;verticalAlign=middle;whiteSpace=wrap;rounded=0;" vertex="1" parent="13">
                    <mxGeometry x="85.75" y="970" width="60" height="30" as="geometry"/>
                </mxCell>
                <mxCell id="113" value="Tidak" style="text;html=1;align=center;verticalAlign=middle;whiteSpace=wrap;rounded=0;" vertex="1" parent="13">
                    <mxGeometry x="219.75" y="790" width="60" height="30" as="geometry"/>
                </mxCell>
                <mxCell id="26" value="" style="endArrow=classic;html=1;exitX=1;exitY=0.5;exitDx=0;exitDy=0;entryX=0;entryY=0.5;entryDx=0;entryDy=0;" parent="1" source="6" target="14" edge="1">
                    <mxGeometry width="50" height="50" relative="1" as="geometry">
                        <mxPoint x="450" y="200" as="sourcePoint"/>
                        <mxPoint x="350" y="175" as="targetPoint"/>
                    </mxGeometry>
                </mxCell>
                <mxCell id="27" value="" style="edgeStyle=elbowEdgeStyle;elbow=vertical;endArrow=classic;html=1;curved=0;rounded=0;endSize=8;startSize=8;entryX=0.5;entryY=0;entryDx=0;entryDy=0;exitX=0.5;exitY=1;exitDx=0;exitDy=0;" parent="1" source="14" target="8" edge="1">
                    <mxGeometry width="50" height="50" relative="1" as="geometry">
                        <mxPoint x="300" y="240" as="sourcePoint"/>
                        <mxPoint x="350" y="190" as="targetPoint"/>
                    </mxGeometry>
                </mxCell>
                <mxCell id="28" value="" style="edgeStyle=none;html=1;exitX=1;exitY=0.5;exitDx=0;exitDy=0;" parent="1" source="9" target="15" edge="1">
                    <mxGeometry relative="1" as="geometry"/>
                </mxCell>
                <mxCell id="30" value="" style="edgeStyle=none;html=1;" parent="1" source="11" target="17" edge="1">
                    <mxGeometry relative="1" as="geometry"/>
                </mxCell>
                <mxCell id="32" value="" style="edgeStyle=elbowEdgeStyle;elbow=vertical;endArrow=classic;html=1;curved=0;rounded=0;endSize=8;startSize=8;exitX=0.5;exitY=1;exitDx=0;exitDy=0;entryX=0.5;entryY=0;entryDx=0;entryDy=0;" parent="1" source="15" target="10" edge="1">
                    <mxGeometry width="50" height="50" relative="1" as="geometry">
                        <mxPoint x="370" y="570" as="sourcePoint"/>
                        <mxPoint x="420" y="520" as="targetPoint"/>
                    </mxGeometry>
                </mxCell>
                <mxCell id="34" value="" style="edgeStyle=elbowEdgeStyle;elbow=vertical;endArrow=classic;html=1;curved=0;rounded=0;endSize=8;startSize=8;entryX=0.5;entryY=0;entryDx=0;entryDy=0;exitX=0.5;exitY=1;exitDx=0;exitDy=0;" parent="1" source="17" target="12" edge="1">
                    <mxGeometry width="50" height="50" relative="1" as="geometry">
                        <mxPoint x="370" y="580" as="sourcePoint"/>
                        <mxPoint x="420" y="530" as="targetPoint"/>
                    </mxGeometry>
                </mxCell>
                <mxCell id="36" value="" style="edgeStyle=none;html=1;" parent="1" source="8" target="35" edge="1">
                    <mxGeometry relative="1" as="geometry"/>
                </mxCell>
                <mxCell id="38" value="" style="edgeStyle=elbowEdgeStyle;elbow=vertical;endArrow=classic;html=1;curved=0;rounded=0;endSize=8;startSize=8;exitX=0.5;exitY=1;exitDx=0;exitDy=0;entryX=0.5;entryY=0;entryDx=0;entryDy=0;" parent="1" source="35" target="9" edge="1">
                    <mxGeometry width="50" height="50" relative="1" as="geometry">
                        <mxPoint x="390" y="390" as="sourcePoint"/>
                        <mxPoint x="440" y="340" as="targetPoint"/>
                    </mxGeometry>
                </mxCell>
                <mxCell id="90" value="" style="edgeStyle=none;html=1;" parent="1" source="88" target="55" edge="1">
                    <mxGeometry relative="1" as="geometry"/>
                </mxCell>
                <mxCell id="91" value="" style="edgeStyle=elbowEdgeStyle;elbow=vertical;endArrow=classic;html=1;curved=0;rounded=0;endSize=8;startSize=8;exitX=0.5;exitY=1;exitDx=0;exitDy=0;entryX=0.5;entryY=0;entryDx=0;entryDy=0;" parent="1" source="55" target="46" edge="1">
                    <mxGeometry width="50" height="50" relative="1" as="geometry">
                        <mxPoint x="300" y="830" as="sourcePoint"/>
                        <mxPoint x="350" y="780" as="targetPoint"/>
                    </mxGeometry>
                </mxCell>
            </root>
        </mxGraphModel>
    </diagram>
</mxfile>